<svg id="Layer_1" data-name="Layer 1" xmlns="http://www.w3.org/2000/svg" viewBox="0 0 64 64"><defs><style>.cls-1{fill:none;stroke:#3097df;stroke-miterlimit:10;stroke-width:2px;}.cls-2{fill:#3097df;}</style></defs><circle class="cls-1" cx="32" cy="32" r="20"/><path class="cls-2" d="M40.58,29.15c.39-2.66-1.63-4.09-4.4-5l.9-3.61L34.88,20,34,23.46l-1.76-.41.88-3.53L30.94,19,30,22.58l-1.41-.33v0l-3-.75L25,23.82s1.59.37,1.59.4a1.16,1.16,0,0,1,1,1.27l-1,4.11.23.07-.23-.05-1.44,5.75a.79.79,0,0,1-1,.52c-.08,0-1.59-.4-1.59-.4L21.49,38l2.86.71,1.56.4L25,42.77l2.19.54.9-3.6,1.75.45L29,43.75l2.19.55.91-3.64c3.74.71,6.56.42,7.74-3,1-2.73,0-4.3-2-5.33A3.5,3.5,0,0,0,40.58,29.15Zm-5,7c-.68,2.73-5.27,1.26-6.75.89L30,32.24C31.5,32.61,36.27,33.34,35.56,36.18Zm.68-7.07c-.62,2.48-4.44,1.22-5.68.91l1.1-4.38C32.89,26,36.88,26.53,36.24,29.11Z"/></svg>