<svg id="Layer_1" data-name="Layer 1" xmlns="http://www.w3.org/2000/svg" viewBox="0 0 64 64"><defs><style>.cls-1{fill:#3097df;}</style></defs><polygon class="cls-1" points="51 45 49 45 49 29 15 29 15 45 13 45 13 27 51 27 51 45"/><path class="cls-1" d="M45,45H43V35H38V45H36V34a1,1,0,0,1,1-1h7a1,1,0,0,1,1,1Z"/><path class="cls-1" d="M31,40H20a1,1,0,0,1-1-1V34a1,1,0,0,1,1-1H31a1,1,0,0,1,1,1v5A1,1,0,0,1,31,40ZM21,38h9V35H21Z"/><path class="cls-1" d="M52,29H12a1,1,0,0,1-1-1V22a1,1,0,0,1,1-1H52a1,1,0,0,1,1,1v6A1,1,0,0,1,52,29ZM13,27H51V23H13Z"/><path class="cls-1" d="M49.62,23H14.38l4.18-8.34A3,3,0,0,1,21.24,13H42.76a3,3,0,0,1,2.69,1.66Zm-32-2H46.38l-2.72-5.44a1,1,0,0,0-.9-.56H21.24a1,1,0,0,0-.89.56Z"/><path class="cls-1" d="M41.28,23H22.72l2-8.13c.29-1.15,1-1.87,1.87-1.87H37.38c.87,0,1.58.72,1.87,1.87Zm-16-2H38.72l-1.41-5.65a1.29,1.29,0,0,0-.13-.35H26.82a1.29,1.29,0,0,0-.13.35Z"/><rect class="cls-1" x="13" y="49" width="38" height="2"/><rect class="cls-1" x="31" y="14" width="2" height="7"/></svg>