<svg xmlns="http://www.w3.org/2000/svg" viewBox="0 0 320 180"><defs><style>.cls-1{fill:#093554;fill-rule:evenodd;}</style></defs><g id="Layer_1" data-name="Layer 1"><g id="Logo_Customers_Freetrade" data-name="Logo/Customers/Freetrade"><path id="Shape" class="cls-1" d="M153.3224,91.3849c-6.72,0-11.1434,5.274-11.1434,12.0224,0,6.8619,4.5651,11.9941,11.4553,11.9374a10.4171,10.4171,0,0,0,9.8108-6.153.5474.5474,0,0,0-.4253-.7656l-3.516-.6521a.8869.8869,0,0,0-.879.3969,5.6639,5.6639,0,0,1-4.99,2.6087c-3.5443,0-6.0962-2.3251-6.6633-6.21H162.68a.8355.8355,0,0,0,.8507-.8507v-1.5311C163.53,95.8649,159.5605,91.3849,153.3224,91.3849Zm-6.0962,9.1869a6.1991,6.1991,0,0,1,6.0962-4.7636c3.3176,0,5.5009,2.155,5.5859,4.7636Zm-14.1775-9.2436a6.8586,6.8586,0,0,0-5.8411,2.8922v-1.276a.8354.8354,0,0,0-.8506-.8506h-3.4309a.8354.8354,0,0,0-.8507.8506v20.8692a.8354.8354,0,0,0,.8507.8506h3.4309a.8354.8354,0,0,0,.8506-.8506V102.2164c0-4.0547,1.758-6.0963,4.1966-6.0963,1.9281,0,3.0906,1.1626,3.3175,3.5444a.8391.8391,0,0,0,.8506.7656h3.4309a.86.86,0,0,0,.8507-.879C139.7121,93.88,136.9617,91.3282,133.0487,91.3282Zm-13.3551-9.3288H98.7961a.8354.8354,0,0,0-.8506.8507v30.9351a.8354.8354,0,0,0,.8506.8506h3.4309a.8354.8354,0,0,0,.8507-.8506V101.3941h14.7161a.8354.8354,0,0,0,.8507-.8506V97.311a.8354.8354,0,0,0-.8507-.8506H103.0777V86.9615h16.6159a.8355.8355,0,0,0,.8507-.8506V82.85A.8722.8722,0,0,0,119.6936,81.9994ZM79.3163,112.3958l-8.3363-4.792a2.69,2.69,0,0,0-2.6937,0L62.587,110.893a11.2658,11.2658,0,0,0-5.6426,9.7541v5.4441a2.7031,2.7031,0,0,0,1.361,2.3534l8.3363,4.82a1.3459,1.3459,0,0,0,2.0132-1.1626V126.12a9.0152,9.0152,0,0,1,4.5084-7.7975l6.153-3.5444A1.3822,1.3822,0,0,0,79.3163,112.3958ZM54.0238,75.5345V67.822a2.7033,2.7033,0,0,0-1.361-2.3534l-8.3363-4.82a1.346,1.346,0,0,0-2.0132,1.1626v8.2229a9.0155,9.0155,0,0,1-4.5084,7.7976L21.6143,87.1884A11.4619,11.4619,0,0,0,16,96.9991v5.4442a2.7033,2.7033,0,0,0,1.361,2.3534l8.3364,4.82a1.3458,1.3458,0,0,0,2.0131-1.1625v-5.9829A9.0154,9.0154,0,0,1,32.219,94.674L48.41,85.3169A11.32,11.32,0,0,0,54.0238,75.5345Zm18.459,17.1547-8.3363-4.82a2.69,2.69,0,0,0-2.6937,0L42.1148,99.0407a11.266,11.266,0,0,0-5.6426,9.7541v5.4441a2.7033,2.7033,0,0,0,1.361,2.3534l8.3363,4.82a1.3459,1.3459,0,0,0,2.0132-1.1625v-5.9829a9.0152,9.0152,0,0,1,4.5084-7.7975l19.7917-11.427A1.3576,1.3576,0,0,0,72.4828,92.6892ZM304,103.7192v-1.5311c0-6.3515-3.97-10.8032-10.2077-10.8032-6.72,0-11.1435,5.274-11.1435,12.0224,0,6.8619,4.5652,11.9941,11.4554,11.9374a10.417,10.417,0,0,0,9.8107-6.153.5474.5474,0,0,0-.4253-.7656l-3.516-.6521a.8871.8871,0,0,0-.879.3969,5.6638,5.6638,0,0,1-4.99,2.6087c-3.5444,0-6.0963-2.3251-6.6634-6.21h15.7086A.8354.8354,0,0,0,304,103.7192Zm-16.304-3.1474a6.1991,6.1991,0,0,1,6.0963-4.7636c3.3175,0,5.5008,2.155,5.5859,4.7636ZM177.821,91.3849c-6.72,0-11.1434,5.274-11.1434,12.0224,0,6.8619,4.5651,11.9941,11.4553,11.9374a10.4173,10.4173,0,0,0,9.8108-6.153.5474.5474,0,0,0-.4253-.7656l-3.516-.6521a.8869.8869,0,0,0-.879.3969,5.6639,5.6639,0,0,1-4.99,2.6087c-3.5443,0-6.0963-2.3251-6.6634-6.21h15.7086a.8355.8355,0,0,0,.8507-.8507v-1.5311C188.0288,95.8649,184.0591,91.3849,177.821,91.3849Zm-6.0963,9.1869a6.1992,6.1992,0,0,1,6.0963-4.7636c3.3175,0,5.5009,2.155,5.5859,4.7636Zm106.841-18.5724h-3.4309a.8355.8355,0,0,0-.8507.8507V94.7308a9.2656,9.2656,0,0,0-7.4573-3.4026c-6.153,0-10.548,5.359-10.548,12.0224,0,6.7485,4.395,11.9941,10.548,11.9941a9.2275,9.2275,0,0,0,7.4573-3.3459v1.8148a.8355.8355,0,0,0,.8507.8506h3.4309a.8355.8355,0,0,0,.8507-.8506V82.85A.8532.8532,0,0,0,278.5657,81.9994Zm-10.6614,28.3549c-3.8562,0-6.4932-2.9489-6.4932-7.0037s2.6653-7.032,6.4932-7.032c3.7712,0,6.38,2.9773,6.38,7.032S271.6755,110.3543,267.9043,110.3543ZM243.7176,91.3282c-4.7919,0-9.1869,2.7787-9.1586,8.2512a.8476.8476,0,0,0,.8507.8223h3.0623a.8633.8633,0,0,0,.8506-.7939c.1418-2.41,1.758-3.913,4.5368-3.913,2.9489,0,4.4234,1.5879,4.4234,3.5444v.8506l-5.2173.879c-5.5576.9357-8.5632,3.2041-8.5632,7.6842,0,3.1757,2.4385,6.72,7.6842,6.72a6.8381,6.8381,0,0,0,6.153-3.3175v1.758a.8354.8354,0,0,0,.8506.8506h3.0624a.8354.8354,0,0,0,.8506-.8506V99.5227C253.0747,94.589,249.899,91.3282,243.7176,91.3282Zm4.5652,13.8088c0,3.4026-2.155,5.5859-5.1323,5.5859-2.3251,0-3.8279-1.0775-3.8279-2.6937,0-2.0416,2.155-2.8072,4.48-3.2041l4.48-.7373v1.0492Zm-37.8254,1.4177-3.6294-.68a.7167.7167,0,0,0-.8506.68c-.0567,2.5236-1.4178,3.998-3.431,3.998-2.1833,0-3.601-1.361-3.601-3.8279V96.5171h10.2361a.8354.8354,0,0,0,.8506-.8506V92.9444a.8354.8354,0,0,0-.8506-.8506H198.9454V86.3094a.8355.8355,0,0,0-.8507-.8507h-3.4309a.8355.8355,0,0,0-.8507.8507v5.7844h-3.0623a.8354.8354,0,0,0-.8506.8506v2.7221a.8354.8354,0,0,0,.8506.8506h3.0623v9.9242c0,5.5008,3.3459,8.9034,8.9035,8.9034,4.5367,0,8.0527-3.119,8.1662-8.2229A.5008.5008,0,0,0,210.4574,106.5547Zm14.6311-15.2265a6.8586,6.8586,0,0,0-5.8411,2.8922v-1.276a.8354.8354,0,0,0-.8506-.8506h-3.431a.8354.8354,0,0,0-.8506.8506v20.8692a.8354.8354,0,0,0,.8506.8506h3.431a.8354.8354,0,0,0,.8506-.8506V102.2164c0-4.0547,1.758-6.0963,4.1965-6.0963,1.9282,0,3.0907,1.1626,3.3175,3.5444a.8393.8393,0,0,0,.8507.7656h3.4309a.86.86,0,0,0,.8507-.879C231.7519,93.88,229.0015,91.3282,225.0885,91.3282Z"/></g></g></svg>